<?xml version="1.0" standalone="yes"?>
<svg xmlns="http://www.w3.org/2000/svg" width="219" height="230">
<path style="fill:#f6f6f6; stroke:none;" d="M0 0L0 230L219 230L219 0L0 0z"/>
<path style="fill:#dda1a1; stroke:none;" d="M104 10L104 11L115 11L104 10M94 11L94 12L98 12L94 11z"/>
<path style="fill:#fd0505; stroke:none;" d="M98 11.4252C81.0288 13.7353 65.2863 19.046 51 28.6713C-21.2133 77.3243 -1.90003 195.729 84 216.116C95.9137 218.943 108.781 220.176 121 218.715C136.234 216.892 150.91 212.015 164 203.935C240.352 156.809 222.707 37.2756 136 14.1551C123.918 10.9333 110.432 9.73282 98 11.4252z"/>
<path style="fill:#dda1a1; stroke:none;" d="M122 11L122 12L125 12L122 11M88 12L88 13L91 13L88 12M128 12L128 13L131 13L128 12M84.6667 13.3333L85.3333 13.6667L84.6667 13.3333M133.667 13.3333L134.333 13.6667L133.667 13.3333M80.6667 14.3333L81.3333 14.6667L80.6667 14.3333M137.667 14.3333L138.333 14.6667L137.667 14.3333M77.6667 15.3333L78.3333 15.6667L77.6667 15.3333M140.667 15.3333L141.333 15.6667L140.667 15.3333M74 16L75 17L74 16M143.667 16.3333L144.333 16.6667L143.667 16.3333M72 17L73 18L72 17M146.667 17.3333L147.333 17.6667L146.667 17.3333M69 18L70 19L69 18M149 18L150 19L149 18M67 19L68 20L67 19M151 19L152 20L151 19M65 20L66 21L65 20M153 20L154 21L153 20M63 21L64 22L63 21M105 21L105 22L114 22L105 21M155 21L156 22L155 21M61 22L62 23L61 22M95 22L95 23L98 23L95 22z"/>
<path style="fill:#f6f6f6; stroke:none;" d="M45 48L45 49C56.3101 60.3101 69.9495 80.1691 85 86C88.8258 77.9109 95.7472 63.3238 105 60.6674C109.436 59.3939 113.629 61.7141 116.961 64.4792C125.205 71.3206 140.295 84.2622 142.38 95C143.673 101.653 145.674 111.286 144.732 117.996C144.234 121.546 141.033 125.435 137.108 123.712C132.167 121.544 132.274 114.467 131.914 110C131.199 101.111 130.749 94.5085 123 89C123.473 100.014 123.088 119.151 128.028 129C131.088 135.102 138.223 140.223 143 145C154.181 156.181 165.719 166.952 177 178C212.568 152.415 206.989 90.1088 184.076 59C151.515 14.7932 83.9344 9.3922 45 48z"/>
<path style="fill:#dda1a1; stroke:none;" d="M120 22L120 23L124 23L120 22M157 22L158 23L157 22M59 23L60 24L59 23M90.6667 23.3333L91.3333 23.6667L90.6667 23.3333M127.667 23.3333L128.333 23.6667L127.667 23.3333M159 23L160 24L159 23M57 24L58 25L57 24M85.6667 24.3333L86.3333 24.6667L85.6667 24.3333M131.667 24.3333L132.333 24.6667L131.667 24.3333M161 24L162 25L161 24M55 25L56 26L55 25M82.6667 25.3333L83.3333 25.6667L82.6667 25.3333M135.667 25.3333L136.333 25.6667L135.667 25.3333M163 25L164 26L163 25M54 26L55 27L54 26M79 26L80 27L79 26M139 26L140 27L139 26M164 26L165 27L164 26M52 27L53 28L52 27M76.6667 27.3333L77.3333 27.6667L76.6667 27.3333M142 27L143 28L142 27M166 27L167 28L166 27M51 28L52 29L51 28M74 28L75 29L74 28M144 28L145 29L144 28M167 28L168 29L167 28M49 29L50 30L49 29M71 29L72 30L71 29M146.667 29.3333L147.333 29.6667L146.667 29.3333M169 29L170 30L169 29M48 30L49 31L48 30M69 30L70 31L69 30M149 30L150 31L149 30M170 30L171 31L170 30M67 31L68 32L67 31M102 31L103 32L102 31z"/>
<path style="fill:#604e4e; stroke:none;" d="M103 31L104 32L103 31z"/>
<path style="fill:#020202; stroke:none;" d="M104.001 31.5725C87.914 35.3905 93.9174 60.9637 110 56.4267C125.013 52.1914 119.233 27.9574 104.001 31.5725z"/>
<path style="fill:#604e4e; stroke:none;" d="M109 31L110 32L109 31z"/>
<path style="fill:#dda1a1; stroke:none;" d="M110 31L111 32L110 31M151 31L152 32L151 31M45 32L46 33L45 32M65 32L66 33L65 32M100 32L101 33L100 32z"/>
<path style="fill:#604e4e; stroke:none;" d="M112 32L113 33L112 32z"/>
<path style="fill:#dda1a1; stroke:none;" d="M153 32L154 33L153 32M173 32L174 33L173 32M44 33L45 34L44 33z"/>
<path style="fill:#604e4e; stroke:none;" d="M99 33L100 34L99 33z"/>
<path style="fill:#dda1a1; stroke:none;" d="M114 33L115 34L114 33M154 33L155 34L154 33M174 33L175 34L174 33M43 34L44 35L43 34M62 34L63 35L62 34M115 34L116 35L115 34M156 34L157 35L156 34M60 35L61 36L60 35M116 35L117 36L116 35M158 35L159 36L158 35z"/>
<path style="fill:#604e4e; stroke:none;" d="M96 36L97 37L96 36z"/>
<path style="fill:#dda1a1; stroke:none;" d="M39 37L40 38L39 37M57 37L58 38L57 37M95 37L96 38L95 37z"/>
<path style="fill:#604e4e; stroke:none;" d="M117 37L118 38L117 37z"/>
<path style="fill:#dda1a1; stroke:none;" d="M161 37L162 38L161 37M179 37L180 38L179 37M38 38L39 39L38 38M56 38L57 39L56 38M118 38L119 39L118 38M180 38L181 39L180 38M37 39L38 40L37 39M54 39L55 40L54 39M94 39L95 40L94 39z"/>
<path style="fill:#604e4e; stroke:none;" d="M118 39L119 40L118 39z"/>
<path style="fill:#dda1a1; stroke:none;" d="M164 39L165 40L164 39M181 39L182 40L181 39M36 40L37 41L36 40M53 40L54 41L53 40z"/>
<path style="fill:#604e4e; stroke:none;" d="M94 40L95 41L94 40z"/>
<path style="fill:#dda1a1; stroke:none;" d="M165 40L166 41L165 40M182 40L183 41L182 40M35 41L36 42L35 41M119 41L119 44L120 44L119 41M183 41L184 42L183 41M34 42L35 43L34 42M184 42L185 43L184 42M33 43L34 44L33 43M49 43L50 44L49 43M169 43L170 44L169 43M185 43L186 44L185 43M32 44L33 45L32 44M48 44L49 45L48 44z"/>
<path style="fill:#604e4e; stroke:none;" d="M119 44L120 45L119 44z"/>
<path style="fill:#dda1a1; stroke:none;" d="M170 44L171 45L170 44M186 44L187 45L186 44M47 45L48 46L47 45M119 45L119 48L120 48L119 45M171 45L172 46L171 45M46 46L47 47L46 46M172 46L173 47L172 46M45 47L46 48L45 47z"/>
<path style="fill:#604e4e; stroke:none;" d="M94 47L95 48L94 47z"/>
<path style="fill:#dda1a1; stroke:none;" d="M44 48L45 49L44 48M94 48L95 49L94 48M189 48L190 49L189 48M45 49L46 50L45 49z"/>
<path style="fill:#604e4e; stroke:none;" d="M118 49L119 50L118 49z"/>
<path style="fill:#dda1a1; stroke:none;" d="M190 49L191 50L190 49M27 50L28 51L27 50M46 50L47 51L46 50z"/>
<path style="fill:#604e4e; stroke:none;" d="M95 50L96 51L95 50z"/>
<path style="fill:#dda1a1; stroke:none;" d="M191 50L192 51L191 50M47 51L48 52L47 51M117 51L118 52L117 51M177 51L178 52L177 51M48 52L49 53L48 52M96 52L97 53L96 52z"/>
<path style="fill:#604e4e; stroke:none;" d="M116 52L117 53L116 52z"/>
<path style="fill:#dda1a1; stroke:none;" d="M178 52L179 53L178 52M25 53L26 54L25 53M49 53L50 54L49 53M97 53L98 54L97 53z"/>
<path style="fill:#604e4e; stroke:none;" d="M115 53L116 54L115 53z"/>
<path style="fill:#dda1a1; stroke:none;" d="M179 53L180 54L179 53M193 53L194 54L193 53M24 54L25 55L24 54M50 54L51 55L50 54M98 54L99 55L98 54z"/>
<path style="fill:#604e4e; stroke:none;" d="M114 54L115 55L114 54z"/>
<path style="fill:#dda1a1; stroke:none;" d="M180 54L181 55L180 54M194 54L195 55L194 54M51 55L52 56L51 55z"/>
<path style="fill:#604e4e; stroke:none;" d="M100 55L101 56L100 55z"/>
<path style="fill:#dda1a1; stroke:none;" d="M113 55L114 56L113 55M23 56L24 57L23 56M52 56L53 57L52 56M101 56L102 57L101 56z"/>
<path style="fill:#604e4e; stroke:none;" d="M102 56L103 57L102 56M110 56L111 57L110 56z"/>
<path style="fill:#dda1a1; stroke:none;" d="M111 56L112 57L111 56M195 56L196 57L195 56M22 57L23 58L22 57M53 57L54 58L53 57M105 57L105 58L109 58L105 57M196 57L197 58L196 57M35 58L34 60L35 58M54 58L55 59L54 58M183 58L184 59L183 58M21 59L22 60L21 59z"/>
<path style="fill:#f6f6f6; stroke:none;" d="M35 59C-0.290203 108.663 18.8355 183.328 79 203.252C110.626 213.724 139.621 205.88 167 189L155 174.91L130 151C133.261 160.578 147.289 178.873 143.257 188.957C139.829 197.529 130.338 194.421 126.824 187.985C118.829 173.341 111.315 156.669 110 140L109 140C105.909 154.935 102.113 175.705 94.5826 188.981C90.1355 196.822 78.3768 195.135 77.9475 185.424C77.2957 170.68 87.7989 150.265 91.8596 136C93.2229 131.211 97.6533 122.91 95.7878 118C94.0467 113.417 85.3578 104.023 80 105.562C74.9555 107.01 65.1787 116.796 61.0471 108.887C57.5252 102.146 68.4825 97.8813 73 96L62 84L35 59z"/>
<path style="fill:#dda1a1; stroke:none;" d="M55 59L56 60L55 59M184 59L185 60L184 59M197 59L198 60L197 59M20 60L21 61L20 60M56 60L57 61L56 60M104.667 60.3333L105.333 60.6667L104.667 60.3333z"/>
<path style="fill:#604e4e; stroke:none;" d="M106 60L106 61L110 61L106 60z"/>
<path style="fill:#dda1a1; stroke:none;" d="M110 60L111 61L110 60M198 60L199 61L198 60M33 61L34 62L33 61M57 61L58 62L57 61M102 61L103 62L102 61z"/>
<path style="fill:#020202; stroke:none;" d="M93 95L96 89L97 89C97.1344 105.234 114.378 120.109 127 129L122 88C130.394 94.395 131.134 100.204 132.424 110C132.985 114.254 132.102 121.529 137.108 123.377C147.91 127.366 143.047 104.626 142.424 100C140.563 86.1644 126.898 68.9059 114 62.4568C102.143 56.5282 95.3844 68.4647 90.2029 77C88.4799 79.8383 84.4929 84.3989 85.446 87.9606C86.3248 91.245 90.349 93.3403 93 95z"/>
<path style="fill:#604e4e; stroke:none;" d="M112 61L113 62L112 61z"/>
<path style="fill:#dda1a1; stroke:none;" d="M113 61L114 62L113 61M19 62L20 63L19 62M32 62L33 63L32 62M58 62L59 63L58 62M100 62L101 63L100 62z"/>
<path style="fill:#604e4e; stroke:none;" d="M114 62L115 63L114 62z"/>
<path style="fill:#dda1a1; stroke:none;" d="M186 62L187 63L186 62M199 62L200 63L199 62M59 63L60 64L59 63z"/>
<path style="fill:#604e4e; stroke:none;" d="M99 63L100 64L99 63z"/>
<path style="fill:#dda1a1; stroke:none;" d="M18 64L19 65L18 64z"/>
<path style="fill:#604e4e; stroke:none;" d="M98 64L99 65L98 64z"/>
<path style="fill:#dda1a1; stroke:none;" d="M117 64L118 65L117 64M187 64L188 65L187 64M200 64L201 65L200 64M30 65L31 66L30 65M97 65L98 66L97 65M118 65L119 66L118 65M188 65L189 66L188 65M17 66L18 67L17 66M96 66L97 67L96 66M119 66L120 67L119 66M201 66L202 67L201 66M29 67L30 68L29 67M120 67L121 68L120 67M189 67L190 68L189 67M16 68L17 69L16 68M95 68L96 69L95 68M202 68L203 69L202 68M47 69L48 70L47 69M15 70L16 71L15 70M27 70L28 71L27 70M48 70L49 71L48 70z"/>
<path style="fill:#604e4e; stroke:none;" d="M94 70L95 71L94 70z"/>
<path style="fill:#dda1a1; stroke:none;" d="M191 70L192 71L191 70M203 70L204 71L203 70M49 71L50 72L49 71M93 71L94 72L93 71M14 72L15 73L14 72M26 72L27 73L26 72M50 72L51 73L50 72M192 72L193 73L192 72M204 72L205 73L204 72M51 73L52 74L51 73z"/>
<path style="fill:#604e4e; stroke:none;" d="M92 73L93 74L92 73z"/>
<path style="fill:#dda1a1; stroke:none;" d="M13 74L14 75L13 74M25 74L26 75L25 74M52 74L53 75L52 74M91 74L92 75L91 74M193 74L194 75L193 74M205 74L206 75L205 74M53 75L54 76L53 75M24 76L25 77L24 76M54 76L55 77L54 76M90 76L91 77L90 76M194.333 76.6667L194.667 77.3333L194.333 76.6667M206.333 76.6667L206.667 77.3333L206.333 76.6667M12 77L13 78L12 77M55 77L56 78L55 77M56 78L57 79L56 78z"/>
<path style="fill:#604e4e; stroke:none;" d="M89 78L90 79L89 78z"/>
<path style="fill:#dda1a1; stroke:none;" d="M11 79L12 80L11 79M23 79L24 80L23 79M57 79L58 80L57 79M88 79L89 80L88 79z"/>
<path style="fill:#604e4e; stroke:none;" d="M131 79L132 80L131 79z"/>
<path style="fill:#dda1a1; stroke:none;" d="M195 79L196 80L195 79M207.333 79.6667L207.667 80.3333L207.333 79.6667M58 80L59 81L58 80z"/>
<path style="fill:#604e4e; stroke:none;" d="M132 80L133 81L132 80z"/>
<path style="fill:#dda1a1; stroke:none;" d="M22.3333 81.6667L22.6667 82.3333L22.3333 81.6667M59 81L60 82L59 81z"/>
<path style="fill:#604e4e; stroke:none;" d="M87 81L88 82L87 81M133 81L134 82L133 81z"/>
<path style="fill:#dda1a1; stroke:none;" d="M196 81L197 82L196 81M10 82L11 83L10 82M60 82L61 83L60 82M86 82L87 83L86 82z"/>
<path style="fill:#604e4e; stroke:none;" d="M134 82L135 83L134 82z"/>
<path style="fill:#dda1a1; stroke:none;" d="M208 82L209 83L208 82M61 83L62 84L61 83z"/>
<path style="fill:#604e4e; stroke:none;" d="M86 83L87 84L86 83M135 83L136 84L135 83z"/>
<path style="fill:#dda1a1; stroke:none;" d="M21 84L22 85L21 84M62 84L63 85L62 84M81 84L82 85L81 84M85 84L86 85L85 84z"/>
<path style="fill:#604e4e; stroke:none;" d="M136 84L137 85L136 84z"/>
<path style="fill:#dda1a1; stroke:none;" d="M197 84L198 85L197 84M9.33333 85.6667L9.66667 86.3333L9.33333 85.6667M63 85L64 86L63 85M82 85L83 86L82 85z"/>
<path style="fill:#604e4e; stroke:none;" d="M137 85L138 86L137 85z"/>
<path style="fill:#dda1a1; stroke:none;" d="M209.333 85.6667L209.667 86.3333L209.333 85.6667M64 86L65 87L64 86M83 86L84 87L83 86z"/>
<path style="fill:#604e4e; stroke:none;" d="M84 86L85 87L84 86M138 86L139 87L138 86z"/>
<path style="fill:#dda1a1; stroke:none;" d="M20 87L21 88L20 87M65 87L66 88L65 87z"/>
<path style="fill:#604e4e; stroke:none;" d="M139 87L140 88L139 87z"/>
<path style="fill:#dda1a1; stroke:none;" d="M198 87L199 88L198 87M66 88L67 89L66 88M122.333 88.6667L122.667 89.3333L122.333 88.6667z"/>
<path style="fill:#604e4e; stroke:none;" d="M123 88L124 89L123 88M140 88L141 89L140 88z"/>
<path style="fill:#dda1a1; stroke:none;" d="M8.33333 89.6667L8.66667 90.3333L8.33333 89.6667M67 89L68 90L67 89z"/>
<path style="fill:#604e4e; stroke:none;" d="M96 89L95 91L96 89M124 89L125 90L124 89z"/>
<path style="fill:#dda1a1; stroke:none;" d="M210.333 89.6667L210.667 90.3333L210.333 89.6667M19.3333 90.6667L19.6667 91.3333L19.3333 90.6667M68 90L69 91L68 90M96 90L96 93L97 93L96 90z"/>
<path style="fill:#604e4e; stroke:none;" d="M122.333 90.6667L122.667 91.3333L122.333 90.6667M125 90L126 91L125 90z"/>
<path style="fill:#dda1a1; stroke:none;" d="M141 90L142 91L141 90M199.333 90.6667L199.667 91.3333L199.333 90.6667M69 91L70 92L69 91z"/>
<path style="fill:#f6f6f6; stroke:none;" d="M95 91C93.6746 94.7823 93.9493 96.3719 97 99L95 91z"/>
<path style="fill:#604e4e; stroke:none;" d="M141 91L142 92L141 91M89 92L90 93L89 92z"/>
<path style="fill:#dda1a1; stroke:none;" d="M94 92L95 93L94 92M7.33333 93.6667L7.66667 94.3333L7.33333 93.6667z"/>
<path style="fill:#604e4e; stroke:none;" d="M90 93L91 94L90 93M93 93L94 94L93 93z"/>
<path style="fill:#dda1a1; stroke:none;" d="M211.333 93.6667L211.667 94.3333L211.333 93.6667M18 94L18 97L19 97L18 94z"/>
<path style="fill:#604e4e; stroke:none;" d="M91 94L92 95L91 94z"/>
<path style="fill:#dda1a1; stroke:none;" d="M123 94L123 98L124 98L123 94M200.333 94.6667L200.667 95.3333L200.333 94.6667z"/>
<path style="fill:#604e4e; stroke:none;" d="M73 95L74 96L73 95M92 95L93 96L92 95M130 95L131 96L130 95z"/>
<path style="fill:#dda1a1; stroke:none;" d="M142 95L142 98L143 98L142 95z"/>
<path style="fill:#604e4e; stroke:none;" d="M71 96L72 97L71 96z"/>
<path style="fill:#020202; stroke:none;" d="M82 104C80.3268 101.633 78.5775 99.137 75.9954 97.6451C64.1014 90.773 54.1806 116.03 69 111.026C70.7578 110.433 72.3882 109.476 74 108.575C76.6812 107.076 79.3554 105.56 82 104z"/>
<path style="fill:#dda1a1; stroke:none;" d="M93 96L94 97L93 96z"/>
<path style="fill:#604e4e; stroke:none;" d="M97.3333 96.6667L97.6667 97.3333L97.3333 96.6667z"/>
<path style="fill:#dda1a1; stroke:none;" d="M130 96L131 97L130 96M69 97L70 98L69 97M94 97L95 98L94 97M6 98L6 102L7 102L6 98M67 98L68 99L67 98M95 98L96 99L95 98M97 98L96 100L98 100L97 98z"/>
<path style="fill:#604e4e; stroke:none;" d="M123.333 98.6667L123.667 99.3333L123.333 98.6667M142 98L142 101L143 101L142 98z"/>
<path style="fill:#dda1a1; stroke:none;" d="M17 99L17 102L18 102L17 99M65 99L66 100L65 99z"/>
<path style="fill:#604e4e; stroke:none;" d="M66 99L67 100L66 99z"/>
<path style="fill:#dda1a1; stroke:none;" d="M201 99L201 103L202 103L201 99M212.333 99.6667L212.667 100.333L212.333 99.6667M63 100L64 101L63 100z"/>
<path style="fill:#604e4e; stroke:none;" d="M64 100L65 101L64 100M131 100L131 103L132 103L131 100M62 101L63 102L62 101M61 102L62 103L61 102z"/>
<path style="fill:#dda1a1; stroke:none;" d="M60 103L61 104L60 103M131 103L131 107L132 107L131 103M81 104L82 105L81 104M124.333 104.667L124.667 105.333L124.333 104.667M143 104L143 107L144 107L143 104M79 105L80 106L79 105z"/>
<path style="fill:#604e4e; stroke:none;" d="M77 106L78 107L77 106M124 106L124 109L125 109L124 106z"/>
<path style="fill:#dda1a1; stroke:none;" d="M5 107L5 123L6 123L5 107z"/>
<path style="fill:#604e4e; stroke:none;" d="M75 107L76 108L75 107z"/>
<path style="fill:#dda1a1; stroke:none;" d="M76 107L77 108L76 107z"/>
<path style="fill:#604e4e; stroke:none;" d="M143.333 107.667L143.667 108.333L143.333 107.667z"/>
<path style="fill:#dda1a1; stroke:none;" d="M202 107L202 122L203 122L202 107M213 107L213 123L214 123L213 107M16 108L16 123L17 123L16 108z"/>
<path style="fill:#604e4e; stroke:none;" d="M60 108L61 109L60 108z"/>
<path style="fill:#dda1a1; stroke:none;" d="M74 108L75 109L74 108M60 109L61 110L60 109M72 109L73 110L72 109M61 110L62 111L61 110z"/>
<path style="fill:#604e4e; stroke:none;" d="M70 110L71 111L70 110M132 110L132 113L133 113L132 110z"/>
<path style="fill:#dda1a1; stroke:none;" d="M62 111L63 112L62 111z"/>
<path style="fill:#604e4e; stroke:none;" d="M68 111L69 112L68 111z"/>
<path style="fill:#dda1a1; stroke:none;" d="M90 111L91 112L90 111M125 111L125 115L126 115L125 111M64 112L64 113L67 113L64 112M91 112L92 113L91 112M92 113L93 114L92 113M132 113L132 117L133 117L132 113M144 113L144 116L145 116L144 113M93 114L94 115L93 114M94 115L95 116L94 115z"/>
<path style="fill:#604e4e; stroke:none;" d="M125.333 115.667L125.667 116.333L125.333 115.667z"/>
<path style="fill:#dda1a1; stroke:none;" d="M95 116L96 117L95 116z"/>
<path style="fill:#604e4e; stroke:none;" d="M144 116L144 120L145 120L144 116z"/>
<path style="fill:#dda1a1; stroke:none;" d="M96 117L97 118L96 117z"/>
<path style="fill:#020202; stroke:none;" d="M97 119C93.1567 135.765 87.7848 152.577 82.659 169C80.8849 174.684 76.2238 184.097 79.4606 189.811C83.3209 196.626 92.1405 194.173 94.8912 187.995C101.268 173.674 107.64 152.591 109 137L110 137C113.172 154.087 117.75 168.129 125.22 184C127.948 189.795 134.439 198.885 141.486 191.566C147.209 185.623 140.548 175.902 138 170C128.945 149.026 115.978 132.366 97 119z"/>
<path style="fill:#dda1a1; stroke:none;" d="M96 120L97 121L96 120M126 120L126 123L127 123L126 120M133 120L134 121L133 120M144 120L145 121L144 120z"/>
<path style="fill:#604e4e; stroke:none;" d="M96 121L97 122L96 121z"/>
<path style="fill:#dda1a1; stroke:none;" d="M134 122L135 123L134 122M143 122L144 123L143 122M95 123L96 124L95 123z"/>
<path style="fill:#604e4e; stroke:none;" d="M126.333 123.667L126.667 124.333L126.333 123.667z"/>
<path style="fill:#dda1a1; stroke:none;" d="M135 123L136 124L135 123M142 123L143 124L142 123z"/>
<path style="fill:#604e4e; stroke:none;" d="M95 124L96 125L95 124z"/>
<path style="fill:#dda1a1; stroke:none;" d="M137 124L138 125L137 124z"/>
<path style="fill:#604e4e; stroke:none;" d="M138.667 124.333L139.333 124.667L138.667 124.333z"/>
<path style="fill:#dda1a1; stroke:none;" d="M140 124L141 125L140 124z"/>
<path style="fill:#604e4e; stroke:none;" d="M104 125L105 126L104 125M105 126L106 127L105 126z"/>
<path style="fill:#dda1a1; stroke:none;" d="M17 127L17 131L18 131L17 127M94 127L95 128L94 127z"/>
<path style="fill:#604e4e; stroke:none;" d="M106 127L107 128L106 127M94 128L95 129L94 128z"/>
<path style="fill:#dda1a1; stroke:none;" d="M201 128L201 131L202 131L201 128M212 128L212 132L213 132L212 128M6 129L6 132L7 132L6 129M127 129L128 130L127 129M93 130L94 131L93 130M128 130L129 131L128 130z"/>
<path style="fill:#604e4e; stroke:none;" d="M93 131L94 132L93 131z"/>
<path style="fill:#dda1a1; stroke:none;" d="M129 131L130 132L129 131M130 132L131 133L130 132M92.3333 133.667L92.6667 134.333L92.3333 133.667M131 133L132 134L131 133M200 133L200 136L201 136L200 133M18.3333 134.667L18.6667 135.333L18.3333 134.667M132 134L133 135L132 134M7.33333 135.667L7.66667 136.333L7.33333 135.667z"/>
<path style="fill:#604e4e; stroke:none;" d="M92 135L93 136L92 135z"/>
<path style="fill:#dda1a1; stroke:none;" d="M133 135L134 136L133 135M211.333 135.667L211.667 136.333L211.333 135.667M134 136L135 137L134 136M91 137L92 138L91 137z"/>
<path style="fill:#604e4e; stroke:none;" d="M109 137L110 138L109 137z"/>
<path style="fill:#dda1a1; stroke:none;" d="M135 137L136 138L135 137M19.3333 138.667L19.6667 139.333L19.3333 138.667z"/>
<path style="fill:#604e4e; stroke:none;" d="M91 138L92 139L91 138z"/>
<path style="fill:#dda1a1; stroke:none;" d="M109.333 138.667L109.667 139.333L109.333 138.667M136 138L137 139L136 138M199.333 138.667L199.667 139.333L199.333 138.667M8.33333 139.667L8.66667 140.333L8.33333 139.667z"/>
<path style="fill:#604e4e; stroke:none;" d="M110.333 139.667L110.667 140.333L110.333 139.667z"/>
<path style="fill:#dda1a1; stroke:none;" d="M137 139L138 140L137 139M210.333 139.667L210.667 140.333L210.333 139.667M90.3333 140.667L90.6667 141.333L90.3333 140.667M138 140L139 141L138 140z"/>
<path style="fill:#604e4e; stroke:none;" d="M108 141L109 142L108 141z"/>
<path style="fill:#dda1a1; stroke:none;" d="M110 141L110 145L111 145L110 141M139 141L140 142L139 141M20 142L21 143L20 142M108 142L109 143L108 142M140 142L141 143L140 142M198 142L199 143L198 142M9.33333 143.667L9.66667 144.333L9.33333 143.667M141 143L142 144L141 143M209.333 143.667L209.667 144.333L209.333 143.667M89 144L90 145L89 144z"/>
<path style="fill:#604e4e; stroke:none;" d="M107 144L108 145L107 144z"/>
<path style="fill:#dda1a1; stroke:none;" d="M142 144L143 145L142 144M21 145L22 146L21 145z"/>
<path style="fill:#604e4e; stroke:none;" d="M89 145L90 146L89 145z"/>
<path style="fill:#dda1a1; stroke:none;" d="M107.333 145.667L107.667 146.333L107.333 145.667M143 145L144 146L143 145M197 145L198 146L197 145M144 146L145 147L144 146M10 147L11 148L10 147M88 147L89 148L88 147M145 147L146 148L145 147M208 147L209 148L208 147M22 148L23 149L22 148z"/>
<path style="fill:#604e4e; stroke:none;" d="M88 148L89 149L88 148M106 148L107 149L106 148M111 148L111 151L112 151L111 148z"/>
<path style="fill:#dda1a1; stroke:none;" d="M146 148L147 149L146 148M196 148L197 149L196 148M106 149L107 150L106 149M147 149L148 150L147 149M11 150L12 151L11 150M23 150L24 151L23 150z"/>
<path style="fill:#604e4e; stroke:none;" d="M129 150L130 151L129 150z"/>
<path style="fill:#dda1a1; stroke:none;" d="M148 150L149 151L148 150M195 150L196 151L195 150M207 150L208 151L207 150M87 151L88 152L87 151z"/>
<path style="fill:#604e4e; stroke:none;" d="M105 151L106 152L105 151z"/>
<path style="fill:#dda1a1; stroke:none;" d="M111 151L111 154L112 154L111 151M149 151L150 152L149 151M12.3333 152.667L12.6667 153.333L12.3333 152.667z"/>
<path style="fill:#604e4e; stroke:none;" d="M87 152L88 153L87 152z"/>
<path style="fill:#dda1a1; stroke:none;" d="M105.333 152.667L105.667 153.333L105.333 152.667M130 152L131 153L130 152M206.333 152.667L206.667 153.333L206.333 152.667M24 153L25 154L24 153z"/>
<path style="fill:#604e4e; stroke:none;" d="M130 153L131 154L130 153z"/>
<path style="fill:#dda1a1; stroke:none;" d="M194 153L195 154L194 153M86 154L87 155L86 154z"/>
<path style="fill:#604e4e; stroke:none;" d="M112 154L113 155L112 154z"/>
<path style="fill:#dda1a1; stroke:none;" d="M13 155L14 156L13 155M25 155L26 156L25 155z"/>
<path style="fill:#604e4e; stroke:none;" d="M86 155L87 156L86 155M104 155L105 156L104 155z"/>
<path style="fill:#dda1a1; stroke:none;" d="M112 155L113 156L112 155z"/>
<path style="fill:#604e4e; stroke:none;" d="M131 155L132 156L131 155z"/>
<path style="fill:#dda1a1; stroke:none;" d="M135 155L136 156L135 155M193 155L194 156L193 155M205 155L206 156L205 155M104 156L105 157L104 156M136 156L137 157L136 156M14 157L15 158L14 157M26 157L27 158L26 157z"/>
<path style="fill:#604e4e; stroke:none;" d="M113 157L114 158L113 157M132 157L133 158L132 157z"/>
<path style="fill:#dda1a1; stroke:none;" d="M137 157L138 158L137 157M192 157L193 158L192 157M204 157L205 158L204 157M85 158L86 159L85 158z"/>
<path style="fill:#604e4e; stroke:none;" d="M103 158L104 159L103 158z"/>
<path style="fill:#dda1a1; stroke:none;" d="M113 158L114 159L113 158M138 158L139 159L138 158M15 159L16 160L15 159M27 159L28 160L27 159z"/>
<path style="fill:#604e4e; stroke:none;" d="M85 159L86 160L85 159z"/>
<path style="fill:#dda1a1; stroke:none;" d="M103.333 159.667L103.667 160.333L103.333 159.667z"/>
<path style="fill:#604e4e; stroke:none;" d="M114 159L115 160L114 159z"/>
<path style="fill:#dda1a1; stroke:none;" d="M133 159L134 160L133 159M139 159L140 160L139 159M191 159L192 160L191 159M203.333 159.667L203.667 160.333L203.333 159.667M114 160L115 161L114 160M140 160L141 161L140 160M84 161L85 162L84 161M134 161L135 162L134 161M141 161L142 162L141 161M202.333 161.667L202.667 162.333L202.333 161.667M29 162L30 163L29 162z"/>
<path style="fill:#604e4e; stroke:none;" d="M84 162L85 163L84 162M102 162L103 163L102 162z"/>
<path style="fill:#dda1a1; stroke:none;" d="M115 162L116 163L115 162z"/>
<path style="fill:#604e4e; stroke:none;" d="M134 162L135 163L134 162z"/>
<path style="fill:#dda1a1; stroke:none;" d="M142 162L143 163L142 162M189 162L190 163L189 162M17 163L18 164L17 163M102 163L103 164L102 163M135 163L136 164L135 163M143 163L144 164L143 163M201 163L202 164L201 163M30 164L31 165L30 164M83.3333 164.667L83.6667 165.333L83.3333 164.667z"/>
<path style="fill:#604e4e; stroke:none;" d="M116 164L117 165L116 164M135 164L136 165L135 164z"/>
<path style="fill:#dda1a1; stroke:none;" d="M144 164L145 165L144 164M188 164L189 165L188 164M18 165L19 166L18 165z"/>
<path style="fill:#604e4e; stroke:none;" d="M101 165L102 166L101 165z"/>
<path style="fill:#dda1a1; stroke:none;" d="M116 165L117 166L116 165M145 165L146 166L145 165M200 165L201 166L200 165z"/>
<path style="fill:#604e4e; stroke:none;" d="M83 166L84 167L83 166z"/>
<path style="fill:#dda1a1; stroke:none;" d="M101 166L102 167L101 166z"/>
<path style="fill:#604e4e; stroke:none;" d="M117 166L118 167L117 166z"/>
<path style="fill:#dda1a1; stroke:none;" d="M136 166L137 167L136 166M146 166L147 167L146 166M19 167L20 168L19 167M32 167L33 168L32 167M117 167L118 168L117 167M147 167L148 168L147 167M186 167L187 168L186 167M199 167L200 168L199 167M82 168L83 169L82 168z"/>
<path style="fill:#604e4e; stroke:none;" d="M118 168L119 169L118 168z"/>
<path style="fill:#dda1a1; stroke:none;" d="M137 168L138 169L137 168M148 168L149 169L148 168M20 169L21 170L20 169z"/>
<path style="fill:#604e4e; stroke:none;" d="M82 169L83 170L82 169M100 169L101 170L100 169z"/>
<path style="fill:#dda1a1; stroke:none;" d="M118 169L119 170L118 169M149 169L150 170L149 169M198 169L199 170L198 169M21 170L22 171L21 170M34 170L35 171L34 170M100 170L101 171L100 170M138 170L139 171L138 170M150 170L151 171L150 170M184 170L185 171L184 170M197 170L198 171L197 170M35 171L36 172L35 171M81 171L82 172L81 171M119 171L120 172L119 171z"/>
<path style="fill:#604e4e; stroke:none;" d="M138 171L139 172L138 171z"/>
<path style="fill:#dda1a1; stroke:none;" d="M151 171L152 172L151 171M183 171L184 172L183 171M22 172L23 173L22 172z"/>
<path style="fill:#604e4e; stroke:none;" d="M81 172L82 173L81 172M99 172L100 173L99 172z"/>
<path style="fill:#dda1a1; stroke:none;" d="M139 172L140 173L139 172M152 172L153 173L152 172M171 172L172 173L171 172M196 172L197 173L196 172M99 173L100 174L99 173z"/>
<path style="fill:#604e4e; stroke:none;" d="M120 173L121 174L120 173M139 173L140 174L139 173z"/>
<path style="fill:#dda1a1; stroke:none;" d="M153 173L154 174L153 173M172 173L173 174L172 173M195 173L196 174L195 173M37 174L38 175L37 174M154 174L155 175L154 174M173 174L174 175L173 174M24 175L25 176L24 175M38 175L39 176L38 175M80 175L81 176L80 175z"/>
<path style="fill:#604e4e; stroke:none;" d="M121 175L122 176L121 175z"/>
<path style="fill:#dda1a1; stroke:none;" d="M140 175L141 176L140 175M155 175L156 176L155 175M174 175L175 176L174 175M180 175L181 176L180 175M194 175L195 176L194 175M25 176L26 177L25 176M39 176L40 177L39 176z"/>
<path style="fill:#604e4e; stroke:none;" d="M80 176L81 177L80 176M98 176L99 177L98 176z"/>
<path style="fill:#dda1a1; stroke:none;" d="M121 176L122 177L121 176M156 176L157 177L156 176M175 176L176 177L175 176M179 176L180 177L179 176M193 176L194 177L193 176M40 177L41 178L40 177M98 177L99 178L98 177M141 177L142 178L141 177M157 177L158 178L157 177M176 177L177 178L176 177M178 177L179 178L178 177M41 178L42 179L41 178M79 178L80 179L79 178M122 178L123 179L122 178M177 178L178 179L177 178M27 179L28 180L27 179z"/>
<path style="fill:#604e4e; stroke:none;" d="M79 179L80 180L79 179M97 179L98 180L97 179z"/>
<path style="fill:#dda1a1; stroke:none;" d="M142 179L143 180L142 179M191 179L192 180L191 179M28 180L29 181L28 180M97 180L98 181L97 180M123 180L124 181L123 180z"/>
<path style="fill:#604e4e; stroke:none;" d="M142 180L143 181L142 180z"/>
<path style="fill:#dda1a1; stroke:none;" d="M190 180L191 181L190 180M78.3333 181.667L78.6667 182.333L78.3333 181.667M143 181L144 182L143 181M189 181L190 182L189 181z"/>
<path style="fill:#604e4e; stroke:none;" d="M124 182L125 183L124 182M143 182L144 183L143 182z"/>
<path style="fill:#dda1a1; stroke:none;" d="M46 183L47 184L46 183z"/>
<path style="fill:#604e4e; stroke:none;" d="M78 183L79 184L78 183z"/>
<path style="fill:#dda1a1; stroke:none;" d="M96.3333 183.667L96.6667 184.333L96.3333 183.667M31 184L32 185L31 184M47 184L48 185L47 184z"/>
<path style="fill:#604e4e; stroke:none;" d="M125 184L126 185L125 184z"/>
<path style="fill:#dda1a1; stroke:none;" d="M32 185L33 186L32 185M48 185L49 186L48 185M77 185L78 186L77 185M125 185L126 186L125 185M186 185L187 186L186 185M33 186L34 187L33 186M49 186L50 187L49 186z"/>
<path style="fill:#604e4e; stroke:none;" d="M95 186L96 187L95 186M126 186L127 187L126 186z"/>
<path style="fill:#dda1a1; stroke:none;" d="M185 186L186 187L185 186M34 187L35 188L34 187M50 187L51 188L50 187M95 187L96 188L95 187M126 187L127 188L126 187M167 187L168 188L167 187M184 187L185 188L184 187M35 188L36 189L35 188z"/>
<path style="fill:#604e4e; stroke:none;" d="M78 188L79 189L78 188M143 188L144 189L143 188z"/>
<path style="fill:#dda1a1; stroke:none;" d="M183 188L184 189L183 188M36 189L37 190L36 189M53 189L54 190L53 189M78 189L79 190L78 189z"/>
<path style="fill:#604e4e; stroke:none;" d="M94 189L95 190L94 189z"/>
<path style="fill:#dda1a1; stroke:none;" d="M127 189L128 190L127 189M143 189L144 190L143 189M165 189L166 190L165 189M182 189L183 190L182 189M37 190L38 191L37 190M54 190L55 191L54 190z"/>
<path style="fill:#604e4e; stroke:none;" d="M79 190L80 191L79 190z"/>
<path style="fill:#dda1a1; stroke:none;" d="M164 190L165 191L164 190M181 190L182 191L181 190M38 191L39 192L38 191M93 191L94 192L93 191M128 191L129 192L128 191M142 191L143 192L142 191M180 191L181 192L180 191M39 192L40 193L39 192M57 192L58 193L57 192z"/>
<path style="fill:#604e4e; stroke:none;" d="M81 192L82 193L81 192M92 192L93 193L92 192z"/>
<path style="fill:#dda1a1; stroke:none;" d="M129 192L130 193L129 192M141 192L142 193L141 192M161 192L162 193L161 192M179 192L180 193L179 192M82 193L83 194L82 193M91 193L92 194L91 193z"/>
<path style="fill:#604e4e; stroke:none;" d="M131 193L132 194L131 193M139 193L140 194L139 193z"/>
<path style="fill:#dda1a1; stroke:none;" d="M178 193L179 194L178 193M60 194L61 195L60 194M84 194L84 195L89 195L84 194M133 194L133 195L138 195L133 194M158 194L159 195L158 194M62 195L63 196L62 195M156 195L157 196L156 195M44 196L45 197L44 196M174 196L175 197L174 196M45 197L46 198L45 197M65 197L66 198L65 197M153 197L154 198L153 197M173 197L174 198L173 197M67 198L68 199L67 198M151 198L152 199L151 198M48 199L49 200L48 199M69 199L70 200L69 199M149 199L150 200L149 199M170 199L171 200L170 199M49 200L50 201L49 200M71.6667 200.333L72.3333 200.667L71.6667 200.333M147 200L148 201L147 200M169 200L170 201L169 200M74 201L75 202L74 201M144 201L145 202L144 201M167 201L168 202L167 201M52 202L53 203L52 202M76 202L77 203L76 202M141.667 202.333L142.333 202.667L141.667 202.333M166 202L167 203L166 202M54 203L55 204L54 203M79 203L80 204L79 203M139 203L140 204L139 203M164 203L165 204L164 203M55 204L56 205L55 204M82.6667 204.333L83.3333 204.667L82.6667 204.333M135.667 204.333L136.333 204.667L135.667 204.333M163 204L164 205L163 204M57 205L58 206L57 205M85.6667 205.333L86.3333 205.667L85.6667 205.333M132.667 205.333L133.333 205.667L132.667 205.333M161 205L162 206L161 205M59 206L60 207L59 206M89 206L89 207L92 207L89 206M127.667 206.333L128.333 206.667L127.667 206.333M159 206L160 207L159 206M61 207L62 208L61 207M95 207L95 208L99 208L95 207M121 207L121 208L124 208L121 207M157 207L158 208L157 207M105 208L105 209L115 209L105 208M155 208L156 209L155 208M65 209L66 210L65 209M153.667 209.333L154.333 209.667L153.667 209.333M67 210L68 211L67 210M151 210L152 211L151 210M69 211L70 212L69 211M149 211L150 212L149 211M71.6667 212.333L72.3333 212.667L71.6667 212.333M146.667 212.333L147.333 212.667L146.667 212.333M74 213L75 214L74 213M144 213L145 214L144 213M77 214L78 215L77 214M141 214L142 215L141 214M80.6667 215.333L81.3333 215.667L80.6667 215.333M137.667 215.333L138.333 215.667L137.667 215.333M84.6667 216.333L85.3333 216.667L84.6667 216.333M133.667 216.333L134.333 216.667L133.667 216.333M88 217L88 218L91 218L88 217M129.667 217.333L130.333 217.667L129.667 217.333M94 218L94 219L97 219L94 218M122 218L122 219L126 219L122 218M103 219L103 220L115 220L103 219z"/>
</svg>
